<svg xmlns="http://www.w3.org/2000/svg" xmlns:xlink="http://www.w3.org/1999/xlink">
  <view id="bg" viewBox="0 0 1920 1080" />
  <view id="copy" viewBox="0 1130 1024 1024" />
  <view id="ok" viewBox="0 2204 24 24" />
  <view id="site" viewBox="0 2278 512 512" />
  <g id="bg-art" transform="translate(0, 0)">
    <defs><filter id="bg_b" width="160%" height="160%" x="-30%" y="-30%"><feGaussianBlur stdDeviation="80"/></filter><filter id="bg_c" width="140%" height="140%" x="-20%" y="-20%"><feGaussianBlur stdDeviation="24"/></filter><filter id="bg_e" width="140%" height="140%" x="-20%" y="-20%"><feGaussianBlur stdDeviation="12"/></filter><filter id="bg_g" width="140%" height="140%" x="-20%" y="-20%"><feDropShadow dx="0" dy="24" flood-color="#000" flood-opacity=".04" stdDeviation="30"/></filter><filter id="bg_i"><feTurbulence baseFrequency=".65" numOctaves="3" stitchTiles="stitch" type="fractalNoise"/><feColorMatrix type="saturate" values="0"/></filter><linearGradient id="bg_a" x1="0%" x2="100%" y1="0%" y2="100%"><stop offset="0%" stop-color="#e8e8ed"/><stop offset="100%" stop-color="#f2f2f7"/></linearGradient><linearGradient id="bg_d" x1="0%" x2="100%" y1="100%" y2="0%"><stop offset="0%" stop-color="#eaebef" stop-opacity=".9"/><stop offset="100%" stop-color="#fff" stop-opacity="0"/></linearGradient><linearGradient id="bg_f" x1="0%" x2="100%" y1="0%" y2="100%"><stop offset="0%" stop-color="#fff"/><stop offset="100%" stop-color="#e5e5ea" stop-opacity=".7"/></linearGradient><linearGradient id="bg_h" x1="0%" x2="100%" y1="0%" y2="100%"><stop offset="0%" stop-color="#eaebef" stop-opacity=".9"/><stop offset="100%" stop-color="#c7c7cc" stop-opacity=".8"/></linearGradient></defs><rect width="100%" height="100%" fill="url(#bg_a)"/><g filter="url(#bg_b)"><ellipse cx="15%" cy="5%" fill="#e5e5ea" opacity=".6" rx="50%" ry="60%"/><ellipse cx="85%" cy="15%" fill="#d1d1d6" opacity=".5" rx="45%" ry="55%"/><ellipse cx="30%" cy="95%" fill="#eaebef" opacity=".7" rx="60%" ry="50%"/><ellipse cx="85%" cy="90%" fill="#d1d1d6" opacity=".6" rx="50%" ry="55%"/><ellipse cx="50%" cy="50%" fill="#fff" opacity=".9" rx="40%" ry="45%"/></g><path fill="#fff" d="M-100 500c500-50 700-400 1300-300 400 50 600-250 900-150v1150H-100Z" filter="url(#bg_c)" opacity=".4"/><path fill="url(#bg_d)" d="M-100 750c500-50 700-500 1300-400 400 50 600-200 900-100v950H-100Z" filter="url(#bg_e)"/><path fill="url(#bg_f)" d="M-100 950c350 0 500-500 1100-500 400 0 600 200 1100 150v600H-100Z" filter="url(#bg_g)"/><path fill="url(#bg_h)" d="M1100 1200c200-350 500-450 1000-300v300Z" filter="url(#bg_g)"/><path fill="#fff" d="M-100 1200v-100c200 0 350 20 550 100Z" filter="url(#bg_g)" opacity=".8"/><rect width="100%" height="100%" filter="url(#bg_i)" opacity=".04" style="mix-blend-mode:multiply;pointer-events:none"/>
  </g>
  <g id="copy-art" transform="translate(0, 1130)">
    <path fill="#727272" d="M109.696 310.848v603.456h603.456V310.848zM76.16 243.84h670.528a32.64 32.64 0 0 1 24.064 9.408 32.64 32.64 0 0 1 9.408 24.064V947.84a32.64 32.64 0 0 1-9.408 24.064 32.64 32.64 0 0 1-24.064 9.408H76.16a32.64 32.64 0 0 1-24.064-9.408 32.64 32.64 0 0 1-9.408-24.064V277.312a32.64 32.64 0 0 1 9.408-24.064 32.64 32.64 0 0 1 24.064-9.408M981.312 76.16v737.536a32.64 32.64 0 0 1-9.408 24.128 32.64 32.64 0 0 1-24.064 9.408H847.232V780.16h67.072V109.696H377.92v67.072h-67.072V76.16a32.64 32.64 0 0 1 9.408-24.064 32.64 32.64 0 0 1 24.128-9.408H947.84a32.64 32.64 0 0 1 24.064 9.408 32.64 32.64 0 0 1 9.408 24.064M243.84 679.68h335.232v67.072H243.84zm0-201.152h335.232V545.6H243.84v-67.136z"/>
  </g>
  <g id="ok-art" transform="translate(0, 2204)">
    <path d="m5 13 4 4L19 7"/>
  </g>
  <g id="site-art" transform="translate(0, 2278)">
    <defs><linearGradient id="site_a" x1="0" x2="1" y1="0" y2="1"><stop offset="0" stop-color="#ffb340"/><stop offset="1" stop-color="#ff7a18"/></linearGradient></defs><path fill="url(#site_a)" d="M170.15 401.578 64.362 482.114V106.28a54.3 54.3 0 0 1 7.086-26.845c4.643-8.162 11.32-14.94 19.36-19.652a52.3 52.3 0 0 1 26.448-7.194h290.918a52.3 52.3 0 0 1 26.447 7.194c8.041 4.712 14.719 11.49 19.361 19.652a54.3 54.3 0 0 1 7.087 26.845v241.607a54.3 54.3 0 0 1-7.087 26.846c-4.642 8.162-11.32 14.939-19.361 19.652a52.3 52.3 0 0 1-26.447 7.193z"/><path fill="#fff" d="M156.927 267.352a39.23 39.23 0 0 0 19.843-5.389 40 40 0 0 0 14.528-14.74 40.74 40.74 0 0 0 5.317-20.139 40.74 40.74 0 0 0-5.317-20.14 40 40 0 0 0-14.528-14.74 39.23 39.23 0 0 0-19.843-5.388 39.27 39.27 0 0 0-23.309 7.697c-6.774 4.999-11.816 12.045-14.403 20.131a40.84 40.84 0 0 0 0 24.88c2.587 8.085 7.629 15.132 14.403 20.131a39.28 39.28 0 0 0 23.309 7.697m105.788 0a39.2 39.2 0 0 0 19.843-5.389 40 40 0 0 0 14.528-14.74 40.73 40.73 0 0 0 5.318-20.139 40.74 40.74 0 0 0-5.318-20.14 40 40 0 0 0-14.528-14.74 39.2 39.2 0 0 0-19.843-5.388 39.27 39.27 0 0 0-23.308 7.697c-6.775 4.999-11.817 12.045-14.404 20.131a40.85 40.85 0 0 0 0 24.88c2.587 8.085 7.629 15.132 14.404 20.131a39.28 39.28 0 0 0 23.308 7.697m105.789 0a39.23 39.23 0 0 0 19.843-5.389 40 40 0 0 0 14.528-14.74 40.74 40.74 0 0 0 5.318-20.139 40.75 40.75 0 0 0-5.318-20.14 40 40 0 0 0-14.528-14.74 39.23 39.23 0 0 0-19.843-5.388 39.28 39.28 0 0 0-23.309 7.697c-6.774 4.999-11.816 12.045-14.403 20.131a40.84 40.84 0 0 0 0 24.88c2.587 8.085 7.629 15.132 14.403 20.131a39.3 39.3 0 0 0 23.309 7.697"/>
  </g>
</svg>
