<svg xmlns="http://www.w3.org/2000/svg" width="512" height="512" fill="none"><defs><linearGradient id="a" x1="0" x2="1" y1="0" y2="1"><stop offset="0" stop-color="#ffb340"/><stop offset="1" stop-color="#ff7a18"/></linearGradient></defs><path fill="url(#a)" d="M170.15 401.578 64.362 482.114V106.28a54.3 54.3 0 0 1 7.086-26.845c4.643-8.162 11.32-14.94 19.36-19.652a52.3 52.3 0 0 1 26.448-7.194h290.918a52.3 52.3 0 0 1 26.447 7.194c8.041 4.712 14.719 11.49 19.361 19.652a54.3 54.3 0 0 1 7.087 26.845v241.607a54.3 54.3 0 0 1-7.087 26.846c-4.642 8.162-11.32 14.939-19.361 19.652a52.3 52.3 0 0 1-26.447 7.193z"/><path fill="#fff" d="M156.927 267.352a39.23 39.23 0 0 0 19.843-5.389 40 40 0 0 0 14.528-14.74 40.74 40.74 0 0 0 5.317-20.139 40.74 40.74 0 0 0-5.317-20.14 40 40 0 0 0-14.528-14.74 39.23 39.23 0 0 0-19.843-5.388 39.27 39.27 0 0 0-23.309 7.697c-6.774 4.999-11.816 12.045-14.403 20.131a40.84 40.84 0 0 0 0 24.88c2.587 8.085 7.629 15.132 14.403 20.131a39.28 39.28 0 0 0 23.309 7.697m105.788 0a39.2 39.2 0 0 0 19.843-5.389 40 40 0 0 0 14.528-14.74 40.73 40.73 0 0 0 5.318-20.139 40.74 40.74 0 0 0-5.318-20.14 40 40 0 0 0-14.528-14.74 39.2 39.2 0 0 0-19.843-5.388 39.27 39.27 0 0 0-23.308 7.697c-6.775 4.999-11.817 12.045-14.404 20.131a40.85 40.85 0 0 0 0 24.88c2.587 8.085 7.629 15.132 14.404 20.131a39.28 39.28 0 0 0 23.308 7.697m105.789 0a39.23 39.23 0 0 0 19.843-5.389 40 40 0 0 0 14.528-14.74 40.74 40.74 0 0 0 5.318-20.139 40.75 40.75 0 0 0-5.318-20.14 40 40 0 0 0-14.528-14.74 39.23 39.23 0 0 0-19.843-5.388 39.28 39.28 0 0 0-23.309 7.697c-6.774 4.999-11.816 12.045-14.403 20.131a40.84 40.84 0 0 0 0 24.88c2.587 8.085 7.629 15.132 14.403 20.131a39.3 39.3 0 0 0 23.309 7.697"/></svg>