<svg xmlns="http://www.w3.org/2000/svg" width="1920" height="1080" preserveAspectRatio="xMidYMid slice"><defs><filter id="b" width="160%" height="160%" x="-30%" y="-30%"><feGaussianBlur stdDeviation="80"/></filter><filter id="c" width="140%" height="140%" x="-20%" y="-20%"><feGaussianBlur stdDeviation="24"/></filter><filter id="e" width="140%" height="140%" x="-20%" y="-20%"><feGaussianBlur stdDeviation="12"/></filter><filter id="g" width="140%" height="140%" x="-20%" y="-20%"><feDropShadow dx="0" dy="24" flood-color="#000" flood-opacity=".04" stdDeviation="30"/></filter><filter id="i"><feTurbulence baseFrequency=".65" numOctaves="3" stitchTiles="stitch" type="fractalNoise"/><feColorMatrix type="saturate" values="0"/></filter><linearGradient id="a" x1="0%" x2="100%" y1="0%" y2="100%"><stop offset="0%" stop-color="#e8e8ed"/><stop offset="100%" stop-color="#f2f2f7"/></linearGradient><linearGradient id="d" x1="0%" x2="100%" y1="100%" y2="0%"><stop offset="0%" stop-color="#eaebef" stop-opacity=".9"/><stop offset="100%" stop-color="#fff" stop-opacity="0"/></linearGradient><linearGradient id="f" x1="0%" x2="100%" y1="0%" y2="100%"><stop offset="0%" stop-color="#fff"/><stop offset="100%" stop-color="#e5e5ea" stop-opacity=".7"/></linearGradient><linearGradient id="h" x1="0%" x2="100%" y1="0%" y2="100%"><stop offset="0%" stop-color="#eaebef" stop-opacity=".9"/><stop offset="100%" stop-color="#c7c7cc" stop-opacity=".8"/></linearGradient></defs><rect width="100%" height="100%" fill="url(#a)"/><g filter="url(#b)"><ellipse cx="15%" cy="5%" fill="#e5e5ea" opacity=".6" rx="50%" ry="60%"/><ellipse cx="85%" cy="15%" fill="#d1d1d6" opacity=".5" rx="45%" ry="55%"/><ellipse cx="30%" cy="95%" fill="#eaebef" opacity=".7" rx="60%" ry="50%"/><ellipse cx="85%" cy="90%" fill="#d1d1d6" opacity=".6" rx="50%" ry="55%"/><ellipse cx="50%" cy="50%" fill="#fff" opacity=".9" rx="40%" ry="45%"/></g><path fill="#fff" d="M-100 500c500-50 700-400 1300-300 400 50 600-250 900-150v1150H-100Z" filter="url(#c)" opacity=".4"/><path fill="url(#d)" d="M-100 750c500-50 700-500 1300-400 400 50 600-200 900-100v950H-100Z" filter="url(#e)"/><path fill="url(#f)" d="M-100 950c350 0 500-500 1100-500 400 0 600 200 1100 150v600H-100Z" filter="url(#g)"/><path fill="url(#h)" d="M1100 1200c200-350 500-450 1000-300v300Z" filter="url(#g)"/><path fill="#fff" d="M-100 1200v-100c200 0 350 20 550 100Z" filter="url(#g)" opacity=".8"/><rect width="100%" height="100%" filter="url(#i)" opacity=".04" style="mix-blend-mode:multiply;pointer-events:none"/></svg>